# xmcd
#
# Track frame offsets: 
#        150
#        9097
#        21979
#        32384
#        42528
#        52441
#        63051
#        74112
#        83676
#        95130
#
# Disc length: 1390 seconds
#
# Revision: 0
# Processed by: cddbd v1.5.2PL0 Copyright (c) Steve Scherf et al.
# Submitted via: ExactAudioCopy v1.0b1
#
DISCID=84056c0a
DTITLE=Johnny Horton - Sings Free And Easy
DYEAR=1956
DGENRE=Country
TTITLE0=Hot In The Sugarcane Field
TTITLE1=Lonesome And Heartbroken
TTITLE2=Seven Come Eleven
TTITLE3=I Can't Forget You
TTITLE4=Wise To The Ways Of A Woman
TTITLE5=Out In New Mexico
TTITLE6=Tetched In The Head
TTITLE7=Just Walk A Little Closer
TTITLE8=Don't Use My Heart For A Stepping Stone
TTITLE9=I Love You Baby
EXTD=
EXTT0=
EXTT1=
EXTT2=
EXTT3=
EXTT4=
EXTT5=
EXTT6=
EXTT7=
EXTT8=
EXTT9=
PLAYORDER=
